<?xml version="1.0" standalone="no"?>
<!DOCTYPE svg PUBLIC "-//W3C//DTD SVG 20010904//EN"
 "http://www.w3.org/TR/2001/REC-SVG-20010904/DTD/svg10.dtd">
<svg version="1.0" xmlns="http://www.w3.org/2000/svg"
 width="724.000000pt" height="723.000000pt" viewBox="0 0 724.000000 723.000000"
 preserveAspectRatio="xMidYMid meet">

<g transform="translate(0.000000,723.000000) scale(0.100000,-0.100000)"
fill="#000000" stroke="none">
<path d="M80 3575 l0 -3555 3560 0 3560 0 0 3555 0 3555 -3560 0 -3560 0 0
-3555z m3010 3501 c0 -2 -222 -159 -492 -349 l-493 -344 -82 -10 c-45 -6 -101
-20 -124 -31 l-42 -21 -71 29 c-39 16 -181 77 -316 135 -135 59 -274 119 -310
133 -36 14 -70 29 -76 33 -6 5 -39 20 -75 33 -35 14 -111 46 -169 71 -136 61
-500 218 -615 266 -49 21 -91 42 -93 48 -3 8 424 11 1477 11 815 0 1481 -2
1481 -4z m762 -38 c9 -24 35 -88 58 -143 23 -55 52 -125 64 -155 13 -30 30
-71 38 -90 9 -19 32 -72 51 -117 l34 -81 -30 -6 c-16 -3 -66 -6 -111 -6 -44 0
-268 -6 -496 -15 -506 -18 -1232 -36 -1237 -31 -3 2 40 34 94 71 54 37 116 80
138 96 22 16 63 45 90 64 28 18 73 50 100 69 28 20 79 56 115 81 36 25 97 68
135 95 39 28 101 72 139 98 38 26 84 57 102 69 18 12 35 27 39 33 4 6 118 10
333 10 l327 0 17 -42z m1888 36 c0 -4 -30 -54 -67 -113 -36 -58 -83 -132 -102
-164 -20 -31 -62 -99 -94 -150 -32 -50 -83 -132 -114 -182 -31 -49 -58 -92
-60 -94 -2 -3 -17 3 -34 13 -21 12 -91 25 -232 42 -176 21 -245 24 -538 24
l-337 0 -14 23 c-8 12 -19 33 -23 47 -4 14 -18 48 -30 75 -13 28 -46 106 -75
175 -29 69 -65 155 -81 191 -15 36 -33 77 -38 92 l-11 27 925 0 c509 0 925 -3
925 -6z m430 -106 c24 -62 57 -149 75 -193 18 -44 38 -98 45 -120 7 -22 16
-44 20 -50 4 -5 11 -21 15 -35 7 -23 46 -125 130 -340 19 -47 40 -103 48 -125
9 -22 31 -80 50 -130 19 -49 48 -126 65 -170 17 -44 50 -127 72 -185 23 -58
51 -133 63 -167 19 -58 20 -63 4 -86 -14 -22 -21 -24 -44 -17 -68 22 -296 94
-383 120 -52 16 -124 39 -160 50 -72 24 -172 55 -395 126 -82 26 -195 61 -250
79 l-100 32 -7 139 c-14 258 -24 337 -51 390 l-24 48 32 51 c46 72 96 152 135
215 18 30 52 84 74 120 23 36 46 73 51 83 6 9 47 75 93 147 l83 130 158 0 158
0 43 -112z m970 -509 l0 -620 -52 -66 c-29 -36 -78 -95 -108 -132 -30 -36 -78
-94 -105 -128 -28 -35 -53 -63 -57 -63 -3 0 -19 33 -34 73 -51 134 -115 301
-170 442 -30 77 -70 181 -89 230 -19 50 -55 144 -81 210 -48 125 -69 181 -136
355 -22 58 -46 119 -53 135 -18 42 -65 169 -65 178 0 4 214 7 475 7 l475 0 0
-621z m-6926 509 c27 -11 78 -32 112 -49 35 -16 66 -29 69 -29 2 0 39 -16 81
-35 41 -19 78 -35 80 -35 3 0 24 -9 48 -20 24 -10 139 -60 256 -110 117 -50
234 -100 259 -111 25 -12 78 -35 116 -52 39 -17 74 -34 78 -38 8 -6 -27 -70
-113 -204 -22 -33 -50 -78 -63 -100 -29 -47 -111 -179 -149 -238 -15 -23 -41
-64 -58 -92 -16 -27 -50 -81 -75 -120 -24 -38 -48 -77 -52 -85 -4 -8 -34 -58
-68 -110 -60 -93 -217 -345 -283 -455 -20 -34 -39 -55 -50 -54 -9 0 -73 17
-142 37 l-125 37 -3 949 c-2 901 -1 948 15 941 10 -4 40 -16 67 -27z m1257
-542 c35 -14 116 -48 179 -76 63 -28 127 -56 143 -62 25 -9 27 -13 20 -47 -14
-65 -6 -310 21 -653 20 -267 26 -403 26 -654 l0 -316 -22 7 c-13 3 -70 19
-128 35 -58 16 -154 44 -215 61 -60 17 -165 46 -232 64 -67 18 -125 35 -130
38 -5 3 -51 17 -103 30 -111 29 -329 91 -415 117 -33 9 -79 23 -103 29 l-42
12 27 47 c15 26 60 99 100 162 74 118 160 255 224 357 83 135 125 203 174 278
28 44 77 123 109 175 32 52 81 131 108 175 28 44 56 89 62 100 7 11 33 53 59
93 37 57 51 71 61 63 7 -6 41 -22 77 -35z m2672 -83 c14 -32 48 -114 77 -183
29 -69 63 -148 76 -177 13 -28 24 -55 24 -59 0 -4 13 -37 29 -73 16 -36 67
-154 112 -261 45 -107 87 -208 95 -225 53 -120 153 -369 149 -373 -2 -3 -37
-6 -77 -9 -40 -2 -170 -10 -288 -18 -118 -8 -343 -22 -500 -30 -157 -8 -313
-18 -346 -21 l-62 -7 24 134 c14 74 38 208 54 299 51 280 99 547 130 725 34
195 56 305 64 312 2 3 82 8 178 12 95 5 187 9 204 9 29 2 33 -2 57 -55z m792
43 c50 -8 122 -17 160 -21 140 -13 207 -46 234 -117 15 -40 31 -236 37 -468 9
-292 -22 -513 -90 -635 -29 -54 -40 -64 -103 -97 -75 -38 -95 -42 -299 -53
l-101 -5 -21 48 c-60 136 -92 210 -92 216 0 4 -11 31 -24 59 -13 29 -48 108
-76 177 -29 69 -84 199 -122 290 -38 91 -85 203 -105 250 -19 47 -45 108 -58
135 -12 28 -26 61 -30 75 -4 14 -18 45 -30 70 -12 25 -26 55 -29 68 l-7 22
333 0 c239 0 358 -4 423 -14z m-1300 -48 c-4 -24 -15 -86 -25 -138 -11 -52
-31 -162 -44 -245 -14 -82 -39 -222 -55 -310 -16 -88 -43 -241 -60 -340 -17
-99 -34 -191 -37 -204 l-5 -24 -32 30 c-18 17 -55 48 -83 69 -28 22 -117 93
-199 159 -81 66 -159 129 -174 140 -14 11 -93 74 -176 140 -82 67 -220 177
-305 246 -85 68 -167 133 -181 144 -34 26 -164 130 -266 213 l-82 67 42 19
c54 25 174 31 827 46 419 10 692 19 838 28 22 2 23 0 17 -40z m-1581 -236 c72
-58 145 -117 162 -131 17 -14 47 -38 65 -53 19 -15 106 -85 193 -155 88 -70
183 -146 211 -168 62 -48 150 -118 248 -198 107 -87 133 -108 237 -191 52 -42
125 -100 161 -130 l65 -54 -9 -65 -10 -65 -51 -20 c-54 -21 -171 -46 -421 -87
-82 -13 -240 -40 -350 -60 -110 -19 -280 -48 -379 -65 -98 -16 -186 -31 -195
-34 -9 -2 -27 -7 -41 -10 l-25 -5 -1 282 c-1 287 -12 537 -40 887 -18 226 -22
393 -11 433 8 28 8 29 34 12 14 -10 85 -65 157 -123z m5084 -1109 l-3 -748
-125 -7 c-69 -4 -231 -14 -360 -23 -129 -9 -338 -22 -463 -28 l-228 -12 -24
25 c-14 15 -25 29 -25 33 0 7 0 7 92 118 35 42 113 138 173 214 61 75 155 192
210 260 55 67 134 164 175 215 41 51 80 98 85 104 6 6 55 67 110 135 55 69
108 134 117 145 86 103 218 267 233 289 9 15 21 27 26 27 5 0 8 -315 7 -747z
m-1498 639 c36 -11 133 -42 215 -67 83 -26 175 -55 205 -65 30 -10 116 -37
190 -60 74 -23 162 -50 195 -61 33 -11 98 -31 145 -45 47 -14 91 -29 97 -33 9
-4 -23 -51 -98 -141 -60 -74 -121 -148 -134 -165 -13 -16 -68 -84 -122 -150
-54 -66 -109 -134 -123 -152 -28 -35 -292 -360 -326 -400 -12 -14 -23 -20 -25
-14 -2 6 -31 39 -65 73 -33 35 -150 160 -259 278 -109 118 -222 240 -252 270
-29 30 -60 65 -68 77 -15 21 -14 23 12 37 110 57 173 247 198 597 l7 87 71
-23 c40 -12 101 -32 137 -43z m-5335 -631 c77 -21 183 -51 235 -65 52 -15 115
-33 140 -41 25 -7 113 -32 195 -55 83 -23 269 -75 415 -117 146 -41 328 -92
404 -114 77 -22 141 -41 142 -42 3 -3 -97 -135 -194 -256 -43 -53 -88 -112
-101 -131 -14 -19 -36 -49 -50 -66 -50 -60 -163 -203 -322 -409 -299 -389
-360 -465 -369 -465 -4 0 -15 19 -23 43 -9 23 -30 76 -47 117 -41 96 -88 211
-134 325 -20 50 -40 99 -46 110 -5 11 -23 54 -39 95 -53 140 -141 355 -152
373 -5 10 -23 53 -39 95 -16 42 -64 160 -106 262 l-78 185 -4 104 c-3 97 -2
103 15 98 10 -4 81 -24 158 -46z m4940 -138 c55 -59 127 -136 160 -172 33 -36
73 -79 90 -95 16 -17 51 -56 79 -86 27 -30 106 -115 175 -188 69 -74 128 -138
129 -143 2 -5 -7 -9 -20 -9 -12 0 -77 -5 -143 -10 -343 -29 -802 -49 -885 -38
-54 6 -216 7 -440 3 l-354 -6 19 23 c11 12 41 45 66 73 25 27 106 118 180 201
329 370 384 432 425 475 l43 46 143 6 c79 3 157 10 173 16 17 5 37 10 45 10 9
1 61 -47 115 -106z m-570 57 c-12 -19 -448 -510 -593 -668 -47 -51 -92 -102
-99 -112 -14 -19 -27 -20 -308 -20 -162 0 -305 4 -319 10 -48 18 -51 35 -54
340 -2 178 0 295 7 312 6 15 24 34 41 43 40 21 194 42 360 49 74 4 234 13 355
22 485 33 619 39 610 24z m-1428 -222 c-1 -51 0 -194 2 -318 l3 -225 -34 -25
c-35 -26 -129 -101 -138 -110 -3 -3 -25 -21 -50 -40 -25 -19 -54 -42 -65 -52
-11 -9 -39 -31 -61 -50 -23 -18 -57 -45 -75 -60 -19 -15 -95 -76 -169 -135
-75 -59 -153 -123 -175 -140 -22 -18 -83 -67 -135 -108 -154 -122 -228 -182
-270 -218 -14 -12 -45 -37 -70 -56 -25 -19 -65 -50 -89 -70 l-44 -36 6 425 c5
402 26 1070 33 1079 2 2 79 17 171 32 277 46 935 160 1058 183 113 22 104 29
102 -76z m-3072 -83 c14 -38 31 -79 37 -89 5 -11 18 -42 28 -70 17 -47 73
-184 150 -366 17 -41 43 -104 56 -140 14 -36 32 -78 39 -95 8 -16 23 -55 35
-85 11 -30 25 -64 30 -75 5 -11 30 -69 54 -130 24 -60 69 -172 100 -248 l57
-139 -48 -60 c-26 -33 -60 -75 -74 -92 -14 -17 -36 -47 -49 -66 -13 -19 -47
-63 -75 -96 -27 -34 -68 -85 -90 -114 -22 -29 -69 -90 -105 -136 -36 -46 -90
-116 -120 -155 -30 -39 -58 -73 -62 -76 -5 -2 -8 519 -8 1158 0 688 4 1159 9
1154 5 -6 21 -41 36 -80z m1671 -525 c-9 -201 -19 -521 -22 -711 l-6 -346 -52
9 c-28 5 -103 17 -166 28 -104 18 -621 102 -712 116 -21 3 -38 10 -38 16 0 5
20 35 45 66 113 142 219 276 331 422 19 25 66 85 104 133 38 48 93 120 124
160 30 40 93 122 141 182 47 61 102 132 123 159 20 27 44 56 53 65 8 9 31 38
50 65 31 44 34 46 38 25 2 -13 -4 -188 -13 -389z m5294 -540 c0 -352 -2 -640
-3 -640 -2 0 -77 80 -168 178 -90 97 -193 208 -229 246 -81 86 -92 98 -215
231 -55 60 -116 125 -135 145 -19 20 -82 87 -140 150 -58 62 -135 145 -172
184 l-67 71 32 6 c18 4 93 10 167 13 74 4 232 13 350 21 224 16 465 31 538 34
l42 1 0 -640z m-1151 513 c30 -32 84 -89 119 -128 145 -156 173 -186 300 -321
72 -78 132 -145 132 -150 0 -8 -166 -83 -345 -155 -38 -16 -83 -35 -100 -43
-59 -29 -235 -106 -243 -106 -4 0 -20 -7 -37 -16 -16 -9 -52 -25 -80 -36 -62
-24 -329 -140 -410 -178 -33 -15 -71 -31 -85 -35 -14 -4 -46 -18 -71 -31 l-46
-23 -7 212 c-4 117 -11 282 -16 367 -5 85 -14 236 -20 335 -12 196 -20 239
-50 278 l-20 26 52 5 c67 7 705 48 843 55 25 1 40 -9 84 -56z m-2666 25 c18
-13 59 -48 92 -78 33 -30 105 -95 160 -145 54 -49 113 -103 130 -120 17 -16
101 -93 185 -170 85 -77 161 -147 171 -156 9 -9 65 -61 125 -115 59 -54 115
-106 124 -114 9 -8 86 -79 171 -157 305 -280 298 -272 264 -273 -51 0 -497
-30 -540 -35 -22 -3 -196 -14 -387 -25 -191 -11 -353 -23 -360 -25 -9 -4 -40
46 -92 147 -43 84 -108 209 -144 278 -95 183 -232 449 -295 573 l-56 109 77
63 c155 128 327 264 335 264 4 1 22 -9 40 -21z m1558 -28 c74 -14 106 -41 123
-103 26 -94 73 -1047 55 -1112 -13 -47 -48 -66 -134 -72 l-74 -6 -87 79 c-48
43 -99 90 -113 104 -15 14 -71 66 -126 115 -98 89 -178 163 -305 281 -36 33
-126 116 -200 184 -146 133 -267 244 -454 416 l-118 109 398 7 c220 4 460 9
534 11 183 5 439 -1 501 -13z m-1977 -460 c18 -36 70 -137 116 -225 77 -150
124 -240 299 -578 l72 -139 -42 -40 c-33 -32 -51 -42 -83 -44 -23 -2 -344 -5
-713 -8 l-673 -4 0 213 0 213 113 91 c245 199 413 334 477 383 19 15 107 85
195 156 l160 129 23 -41 c13 -23 38 -70 56 -106z m3724 -223 c23 -23 42 -48
42 -55 0 -6 -22 -44 -49 -84 -26 -40 -74 -112 -105 -160 -139 -217 -172 -269
-227 -353 -138 -213 -206 -319 -234 -363 -16 -26 -77 -120 -135 -209 -58 -89
-136 -211 -174 -270 -38 -59 -97 -151 -131 -203 -34 -52 -77 -120 -96 -150
l-34 -55 -6 105 c-4 58 -7 178 -8 266 0 89 -6 185 -11 215 -20 106 -82 160
-201 174 l-55 7 -45 69 c-24 39 -53 82 -64 96 -10 15 -61 89 -111 165 l-92
137 36 7 c57 9 102 24 164 55 32 16 90 42 130 58 40 16 87 36 103 44 17 8 86
38 155 67 69 29 130 56 135 60 6 4 35 17 65 28 30 12 102 42 160 67 58 26 200
87 315 137 116 49 233 100 260 112 28 13 72 31 98 41 26 10 50 22 53 26 9 15
19 10 62 -34z m183 -199 c93 -102 163 -177 273 -293 l56 -60 0 -738 c0 -410
-4 -737 -9 -735 -4 2 -104 116 -222 253 -117 138 -290 338 -384 445 -254 291
-345 397 -345 404 0 4 8 19 19 34 25 36 52 78 76 117 21 34 137 213 318 491
59 90 107 169 107 174 0 22 21 5 111 -92z m-5876 -53 c50 -8 160 -27 245 -41
85 -14 238 -38 340 -54 102 -16 212 -35 245 -42 l60 -13 3 -211 3 -210 -43
-18 c-24 -10 -74 -31 -113 -46 -38 -15 -108 -44 -155 -63 -92 -38 -366 -150
-495 -202 -44 -18 -159 -65 -255 -105 -96 -39 -206 -85 -245 -100 -38 -15
-110 -44 -160 -64 -49 -20 -99 -40 -110 -46 -42 -20 -98 -40 -111 -40 -11 0
-14 38 -14 206 l0 206 83 105 c45 57 89 115 97 127 8 12 40 53 71 91 30 39 83
106 117 150 54 70 150 194 270 348 28 37 42 47 57 42 11 -3 61 -12 110 -20z
m3938 -482 c24 -38 56 -86 70 -108 14 -22 64 -96 111 -165 56 -83 81 -127 73
-131 -7 -4 -100 -9 -207 -13 -107 -4 -386 -15 -620 -26 -234 -11 -517 -21
-630 -23 -294 -3 -298 0 -299 250 -1 140 -1 142 24 161 38 30 101 41 315 52
107 5 290 17 405 26 255 18 603 41 667 43 l46 1 45 -67z m-1560 -252 c4 -72
11 -141 16 -154 8 -21 5 -28 -26 -53 -20 -16 -52 -43 -72 -60 -40 -34 -269
-218 -310 -249 -23 -18 -200 -160 -291 -234 -19 -16 -114 -92 -210 -170 -295
-237 -342 -276 -354 -286 -49 -45 -146 -113 -151 -106 -5 9 -18 490 -30 1103
l-6 328 413 3 c227 1 548 3 714 5 l301 2 6 -129z m-1480 -313 c7 -430 23 -917
32 -1003 5 -50 5 -50 -55 -115 -34 -36 -113 -122 -178 -192 -108 -118 -118
-126 -137 -114 -99 65 -171 113 -230 154 -38 26 -187 127 -330 224 -143 96
-316 214 -385 261 -69 48 -147 100 -175 117 -27 17 -70 46 -95 65 -25 19 -69
48 -97 65 l-53 31 0 115 0 115 38 15 c20 8 51 21 67 29 17 8 64 28 105 44 41
16 116 46 165 66 50 20 122 50 160 65 91 37 200 81 415 170 96 40 207 85 245
100 121 48 216 87 350 144 72 30 135 55 141 55 7 1 13 -124 17 -411z m4532 75
c116 -135 217 -252 227 -261 9 -10 136 -156 282 -327 l265 -310 1 -117 0 -117
-42 -5 c-24 -3 -151 -13 -283 -21 -132 -9 -314 -22 -405 -30 -242 -21 -940
-68 -945 -63 -2 2 0 21 5 43 5 22 10 127 10 234 l0 194 36 56 c20 31 51 79 69
106 18 28 60 92 94 142 33 51 61 95 61 99 0 3 13 24 29 47 38 55 244 373 330
510 24 37 46 67 49 66 4 0 102 -111 217 -246z m-1520 -254 c-154 -155 -466
-468 -693 -695 l-412 -414 -171 0 -171 0 6 68 c3 37 10 261 16 497 5 237 12
507 16 600 l6 170 231 2 c229 3 513 13 1042 38 149 7 301 13 340 14 l70 1
-280 -281z m479 267 c47 -20 72 -57 85 -128 7 -41 12 -246 14 -573 2 -493 1
-511 -18 -550 -26 -51 -83 -90 -165 -112 -56 -15 -111 -18 -385 -18 -479 0
-1025 9 -1022 17 1 4 310 316 686 693 l683 685 44 0 c25 0 59 -6 78 -14z
m-1944 -148 c0 -102 -27 -1212 -30 -1224 0 -1 -111 -4 -247 -8 -137 -4 -405
-14 -598 -22 -432 -19 -466 -15 -510 60 -27 45 -48 103 -58 153 -6 32 -3 35
139 150 80 65 161 129 179 143 18 14 100 79 182 145 336 274 457 371 488 395
33 25 354 285 404 327 48 41 51 35 51 -119z m-3140 -580 c50 -35 116 -79 145
-98 30 -19 89 -59 132 -89 71 -49 203 -139 668 -453 88 -60 188 -127 223 -150
34 -23 62 -46 62 -50 0 -6 -64 -77 -175 -194 -5 -6 -77 -83 -159 -172 l-150
-162 -425 2 -426 3 -3 713 c-1 422 2 712 7 712 5 0 50 -28 101 -62z m6898
-920 l-3 -443 -529 -3 -530 -2 -60 63 c-34 35 -95 100 -136 143 -41 44 -137
145 -212 224 -261 276 -278 295 -278 301 0 3 8 13 18 22 15 14 84 21 383 42
200 14 384 28 409 31 61 8 810 61 883 63 l57 1 -2 -442z m-5243 405 c14 -58
64 -150 94 -176 57 -48 81 -48 746 -28 248 7 475 12 507 10 l56 -4 -321 -328
-322 -327 -793 0 c-486 0 -792 4 -790 9 3 9 100 116 249 275 87 93 278 299
453 489 54 59 102 107 106 107 4 0 11 -12 15 -27z m3508 -220 c40 -42 86 -90
102 -108 17 -17 102 -107 190 -200 88 -94 190 -202 228 -241 37 -39 67 -74 67
-77 0 -4 -273 -7 -608 -7 l-607 0 -65 45 c-77 52 -136 94 -216 153 -33 23
-111 79 -174 125 -63 45 -126 90 -140 100 -14 10 -74 54 -135 97 -60 44 -132
96 -160 116 l-50 36 535 -8 c731 -12 831 -9 924 32 17 7 32 13 34 14 2 0 36
-35 75 -77z m-1588 -13 c71 -51 201 -144 325 -235 65 -47 215 -154 280 -200
16 -11 70 -49 120 -85 50 -36 99 -70 108 -77 9 -6 14 -14 11 -17 -3 -3 -437
-5 -965 -4 l-959 3 330 333 329 332 176 0 175 0 70 -50z"/>
<path d="M1746 6820 c-58 -18 -106 -83 -106 -145 0 -75 56 -148 124 -160 37
-7 101 8 130 30 32 24 11 28 -30 6 -21 -12 -52 -21 -69 -21 -44 0 -96 31 -117
71 -32 59 -27 65 55 72 123 9 188 58 152 114 -26 40 -76 51 -139 33z m104 -23
c16 -8 25 -21 25 -37 0 -37 -53 -62 -141 -68 -83 -5 -88 0 -55 54 33 55 115
79 171 51z"/>
<path d="M3386 6820 c-58 -18 -106 -83 -106 -145 0 -75 56 -148 124 -160 37
-7 101 8 130 30 32 24 11 28 -30 6 -21 -12 -52 -21 -69 -21 -44 0 -96 31 -117
71 -32 59 -27 65 55 72 123 9 188 58 152 114 -26 40 -76 51 -139 33z m104 -23
c16 -8 25 -21 25 -37 0 -37 -53 -62 -141 -68 -83 -5 -88 0 -55 54 33 55 115
79 171 51z"/>
<path d="M4726 6820 c-58 -18 -106 -83 -106 -145 0 -75 56 -148 124 -160 37
-7 101 8 130 30 32 24 11 28 -30 6 -21 -12 -52 -21 -69 -21 -44 0 -96 31 -117
71 -32 59 -27 65 55 72 123 9 188 58 152 114 -26 40 -76 51 -139 33z m104 -23
c16 -8 25 -21 25 -37 0 -37 -53 -62 -141 -68 -83 -5 -88 0 -55 54 33 55 115
79 171 51z"/>
<path d="M5856 6300 c-58 -18 -106 -83 -106 -145 0 -75 56 -148 124 -160 37
-7 101 8 130 30 32 24 11 28 -30 6 -21 -12 -52 -21 -69 -21 -44 0 -96 31 -117
71 -32 59 -27 65 55 72 123 9 188 58 152 114 -26 40 -76 51 -139 33z m104 -23
c16 -8 25 -21 25 -37 0 -37 -53 -62 -141 -68 -83 -5 -88 0 -55 54 33 55 115
79 171 51z"/>
<path d="M6756 6640 c-58 -18 -106 -83 -106 -145 0 -75 56 -148 124 -160 37
-7 101 8 130 30 32 24 11 28 -30 6 -21 -12 -52 -21 -69 -21 -44 0 -96 31 -117
71 -32 59 -27 65 55 72 123 9 188 58 152 114 -26 40 -76 51 -139 33z m104 -23
c16 -8 25 -21 25 -37 0 -37 -53 -62 -141 -68 -83 -5 -88 0 -55 54 33 55 115
79 171 51z"/>
<path d="M526 6160 c-58 -18 -106 -83 -106 -145 0 -75 56 -148 124 -160 37 -7
101 8 130 30 32 24 11 28 -30 6 -21 -12 -52 -21 -69 -21 -44 0 -96 31 -117 71
-32 59 -27 65 55 72 123 9 188 58 152 114 -26 40 -76 51 -139 33z m104 -23
c16 -8 25 -21 25 -37 0 -37 -53 -62 -141 -68 -83 -5 -88 0 -55 54 33 55 115
79 171 51z"/>
<path d="M1316 5560 c-58 -18 -106 -83 -106 -145 0 -75 56 -148 124 -160 37
-7 101 8 130 30 32 24 11 28 -30 6 -21 -12 -52 -21 -69 -21 -44 0 -96 31 -117
71 -32 59 -27 65 55 72 123 9 188 58 152 114 -26 40 -76 51 -139 33z m104 -23
c16 -8 25 -21 25 -37 0 -37 -53 -62 -141 -68 -83 -5 -88 0 -55 54 33 55 115
79 171 51z"/>
<path d="M3893 5653 c4 -75 7 -216 7 -315 l0 -178 160 0 c100 0 160 4 160 10
0 6 -57 10 -150 10 l-150 0 0 145 0 145 121 0 c77 0 118 4 114 10 -4 6 -57 10
-126 10 l-119 0 0 140 0 140 155 0 c97 0 155 4 155 10 0 6 -62 10 -167 10
l-166 0 6 -137z"/>
<path d="M4783 6053 c4 -75 7 -216 7 -315 l0 -178 160 0 c100 0 160 4 160 10
0 6 -57 10 -150 10 l-150 0 0 145 0 145 121 0 c77 0 118 4 114 10 -4 6 -57 10
-126 10 l-119 0 0 140 0 140 155 0 c97 0 155 4 155 10 0 6 -62 10 -167 10
l-166 0 6 -137z"/>
<path d="M2973 6083 c4 -75 7 -216 7 -315 l0 -178 160 0 c100 0 160 4 160 10
0 6 -57 10 -150 10 l-150 0 0 145 0 145 121 0 c77 0 118 4 114 10 -4 6 -57 10
-126 10 l-119 0 0 140 0 140 155 0 c97 0 155 4 155 10 0 6 -62 10 -167 10
l-166 0 6 -137z"/>
<path d="M2163 5463 c4 -75 7 -216 7 -315 l0 -178 160 0 c100 0 160 4 160 10
0 6 -57 10 -150 10 l-150 0 0 145 0 145 121 0 c77 0 118 4 114 10 -4 6 -57 10
-126 10 l-119 0 0 140 0 140 155 0 c97 0 155 4 155 10 0 6 -62 10 -167 10
l-166 0 6 -137z"/>
<path d="M6816 4750 c-58 -18 -106 -83 -106 -145 0 -75 56 -148 124 -160 37
-7 101 8 130 30 32 24 11 28 -30 6 -21 -12 -52 -21 -69 -21 -44 0 -96 31 -117
71 -32 59 -27 65 55 72 123 9 188 58 152 114 -26 40 -76 51 -139 33z m104 -23
c16 -8 25 -21 25 -37 0 -37 -53 -62 -141 -68 -83 -5 -88 0 -55 54 33 55 115
79 171 51z"/>
<path d="M5736 5090 c-58 -18 -106 -83 -106 -145 0 -75 56 -148 124 -160 37
-7 101 8 130 30 32 24 11 28 -30 6 -21 -12 -52 -21 -69 -21 -44 0 -96 31 -117
71 -32 59 -27 65 55 72 123 9 188 58 152 114 -26 40 -76 51 -139 33z m104 -23
c16 -8 25 -21 25 -37 0 -37 -53 -62 -141 -68 -83 -5 -88 0 -55 54 33 55 115
79 171 51z"/>
<path d="M856 4180 c-58 -18 -106 -83 -106 -145 0 -75 56 -148 124 -160 37 -7
101 8 130 30 32 24 11 28 -30 6 -21 -12 -52 -21 -69 -21 -44 0 -96 31 -117 71
-32 59 -27 65 55 72 123 9 188 58 152 114 -26 40 -76 51 -139 33z m104 -23
c16 -8 25 -21 25 -37 0 -37 -53 -62 -141 -68 -83 -5 -88 0 -55 54 33 55 115
79 171 51z"/>
<path d="M4896 4520 c-58 -18 -106 -83 -106 -145 0 -75 56 -148 124 -160 37
-7 101 8 130 30 32 24 11 28 -30 6 -21 -12 -52 -21 -69 -21 -44 0 -96 31 -117
71 -32 59 -27 65 55 72 123 9 188 58 152 114 -26 40 -76 51 -139 33z m104 -23
c16 -8 25 -21 25 -37 0 -37 -53 -62 -141 -68 -83 -5 -88 0 -55 54 33 55 115
79 171 51z"/>
<path d="M3726 4520 c-58 -18 -106 -83 -106 -145 0 -75 56 -148 124 -160 37
-7 101 8 130 30 32 24 11 28 -30 6 -21 -12 -52 -21 -69 -21 -44 0 -96 31 -117
71 -32 59 -27 65 55 72 123 9 188 58 152 114 -26 40 -76 51 -139 33z m104 -23
c16 -8 25 -21 25 -37 0 -37 -53 -62 -141 -68 -83 -5 -88 0 -55 54 33 55 115
79 171 51z"/>
<path d="M2163 4253 c4 -75 7 -216 7 -315 l0 -178 160 0 c100 0 160 4 160 10
0 6 -57 10 -150 10 l-150 0 0 145 0 145 121 0 c77 0 118 4 114 10 -4 6 -57 10
-126 10 l-119 0 0 140 0 140 155 0 c97 0 155 4 155 10 0 6 -62 10 -167 10
l-166 0 6 -137z"/>
<path d="M326 3330 c-58 -18 -106 -83 -106 -145 0 -75 56 -148 124 -160 37 -7
101 8 130 30 32 24 11 28 -30 6 -21 -12 -52 -21 -69 -21 -44 0 -96 31 -117 71
-32 59 -27 65 55 72 123 9 188 58 152 114 -26 40 -76 51 -139 33z m104 -23
c16 -8 25 -21 25 -37 0 -37 -53 -62 -141 -68 -83 -5 -88 0 -55 54 33 55 115
79 171 51z"/>
<path d="M1456 3490 c-58 -18 -106 -83 -106 -145 0 -75 56 -148 124 -160 37
-7 101 8 130 30 32 24 11 28 -30 6 -21 -12 -52 -21 -69 -21 -44 0 -96 31 -117
71 -32 59 -27 65 55 72 123 9 188 58 152 114 -26 40 -76 51 -139 33z m104 -23
c16 -8 25 -21 25 -37 0 -37 -53 -62 -141 -68 -83 -5 -88 0 -55 54 33 55 115
79 171 51z"/>
<path d="M6816 3780 c-58 -18 -106 -83 -106 -145 0 -75 56 -148 124 -160 37
-7 101 8 130 30 32 24 11 28 -30 6 -21 -12 -52 -21 -69 -21 -44 0 -96 31 -117
71 -32 59 -27 65 55 72 123 9 188 58 152 114 -26 40 -76 51 -139 33z m104 -23
c16 -8 25 -21 25 -37 0 -37 -53 -62 -141 -68 -83 -5 -88 0 -55 54 33 55 115
79 171 51z"/>
<path d="M5556 3600 c-58 -18 -106 -83 -106 -145 0 -75 56 -148 124 -160 37
-7 101 8 130 30 32 24 11 28 -30 6 -21 -12 -52 -21 -69 -21 -44 0 -96 31 -117
71 -32 59 -27 65 55 72 123 9 188 58 152 114 -26 40 -76 51 -139 33z m104 -23
c16 -8 25 -21 25 -37 0 -37 -53 -62 -141 -68 -83 -5 -88 0 -55 54 33 55 115
79 171 51z"/>
<path d="M3403 3513 c4 -75 7 -216 7 -315 l0 -178 160 0 c100 0 160 4 160 10
0 6 -57 10 -150 10 l-150 0 0 145 0 145 121 0 c77 0 118 4 114 10 -4 6 -57 10
-126 10 l-119 0 0 140 0 140 155 0 c97 0 155 4 155 10 0 6 -62 10 -167 10
l-166 0 6 -137z"/>
<path d="M4393 3783 c4 -75 7 -216 7 -315 l0 -178 160 0 c100 0 160 4 160 10
0 6 -57 10 -150 10 l-150 0 0 145 0 145 121 0 c77 0 118 4 114 10 -4 6 -57 10
-126 10 l-119 0 0 140 0 140 155 0 c97 0 155 4 155 10 0 6 -62 10 -167 10
l-166 0 6 -137z"/>
<path d="M2383 3223 c4 -75 7 -216 7 -315 l0 -178 160 0 c100 0 160 4 160 10
0 6 -57 10 -150 10 l-150 0 0 145 0 145 121 0 c77 0 118 4 114 10 -4 6 -57 10
-126 10 l-119 0 0 140 0 140 155 0 c97 0 155 4 155 10 0 6 -62 10 -167 10
l-166 0 6 -137z"/>
<path d="M5556 2580 c-58 -18 -106 -83 -106 -145 0 -75 56 -148 124 -160 37
-7 101 8 130 30 32 24 11 28 -30 6 -21 -12 -52 -21 -69 -21 -44 0 -96 31 -117
71 -32 59 -27 65 55 72 123 9 188 58 152 114 -26 40 -76 51 -139 33z m104 -23
c16 -8 25 -21 25 -37 0 -37 -53 -62 -141 -68 -83 -5 -88 0 -55 54 33 55 115
79 171 51z"/>
<path d="M6756 2530 c-58 -18 -106 -83 -106 -145 0 -75 56 -148 124 -160 37
-7 101 8 130 30 32 24 11 28 -30 6 -21 -12 -52 -21 -69 -21 -44 0 -96 31 -117
71 -32 59 -27 65 55 72 123 9 188 58 152 114 -26 40 -76 51 -139 33z m104 -23
c16 -8 25 -21 25 -37 0 -37 -53 -62 -141 -68 -83 -5 -88 0 -55 54 33 55 115
79 171 51z"/>
<path d="M1076 2700 c-58 -18 -106 -83 -106 -145 0 -75 56 -148 124 -160 37
-7 101 8 130 30 32 24 11 28 -30 6 -21 -12 -52 -21 -69 -21 -44 0 -96 31 -117
71 -32 59 -27 65 55 72 123 9 188 58 152 114 -26 40 -76 51 -139 33z m104 -23
c16 -8 25 -21 25 -37 0 -37 -53 -62 -141 -68 -83 -5 -88 0 -55 54 33 55 115
79 171 51z"/>
<path d="M4006 2530 c-58 -18 -106 -83 -106 -145 0 -75 56 -148 124 -160 37
-7 101 8 130 30 32 24 11 28 -30 6 -21 -12 -52 -21 -69 -21 -44 0 -96 31 -117
71 -32 59 -27 65 55 72 123 9 188 58 152 114 -26 40 -76 51 -139 33z m104 -23
c16 -8 25 -21 25 -37 0 -37 -53 -62 -141 -68 -83 -5 -88 0 -55 54 33 55 115
79 171 51z"/>
<path d="M2213 2193 c4 -75 7 -216 7 -315 l0 -178 160 0 c100 0 160 4 160 10
0 6 -57 10 -150 10 l-150 0 0 145 0 145 121 0 c77 0 118 4 114 10 -4 6 -57 10
-126 10 l-119 0 0 140 0 140 155 0 c97 0 155 4 155 10 0 6 -62 10 -167 10
l-166 0 6 -137z"/>
<path d="M1286 1470 c-58 -18 -106 -83 -106 -145 0 -75 56 -148 124 -160 37
-7 101 8 130 30 32 24 11 28 -30 6 -21 -12 -52 -21 -69 -21 -44 0 -96 31 -117
71 -32 59 -27 65 55 72 123 9 188 58 152 114 -26 40 -76 51 -139 33z m104 -23
c16 -8 25 -21 25 -37 0 -37 -53 -62 -141 -68 -83 -5 -88 0 -55 54 33 55 115
79 171 51z"/>
<path d="M6066 1470 c-58 -18 -106 -83 -106 -145 0 -75 56 -148 124 -160 37
-7 101 8 130 30 32 24 11 28 -30 6 -21 -12 -52 -21 -69 -21 -44 0 -96 31 -117
71 -32 59 -27 65 55 72 123 9 188 58 152 114 -26 40 -76 51 -139 33z m104 -23
c16 -8 25 -21 25 -37 0 -37 -53 -62 -141 -68 -83 -5 -88 0 -55 54 33 55 115
79 171 51z"/>
<path d="M3713 1743 c4 -75 7 -216 7 -315 l0 -178 160 0 c100 0 160 4 160 10
0 6 -57 10 -150 10 l-150 0 0 145 0 145 121 0 c77 0 118 4 114 10 -4 6 -57 10
-126 10 l-119 0 0 140 0 140 155 0 c97 0 155 4 155 10 0 6 -62 10 -167 10
l-166 0 6 -137z"/>
<path d="M4783 1493 c4 -75 7 -216 7 -315 l0 -178 160 0 c100 0 160 4 160 10
0 6 -57 10 -150 10 l-150 0 0 145 0 145 121 0 c77 0 118 4 114 10 -4 6 -57 10
-126 10 l-119 0 0 140 0 140 155 0 c97 0 155 4 155 10 0 6 -62 10 -167 10
l-166 0 6 -137z"/>
<path d="M2753 1373 c4 -75 7 -216 7 -315 l0 -178 160 0 c100 0 160 4 160 10
0 6 -57 10 -150 10 l-150 0 0 145 0 145 121 0 c77 0 118 4 114 10 -4 6 -57 10
-126 10 l-119 0 0 140 0 140 155 0 c97 0 155 4 155 10 0 6 -62 10 -167 10
l-166 0 6 -137z"/>
<path d="M486 630 c-58 -18 -106 -83 -106 -145 0 -75 56 -148 124 -160 37 -7
101 8 130 30 32 24 11 28 -30 6 -21 -12 -52 -21 -69 -21 -44 0 -96 31 -117 71
-32 59 -27 65 55 72 123 9 188 58 152 114 -26 40 -76 51 -139 33z m104 -23
c16 -8 25 -21 25 -37 0 -37 -53 -62 -141 -68 -83 -5 -88 0 -55 54 33 55 115
79 171 51z"/>
<path d="M6606 500 c-58 -18 -106 -83 -106 -145 0 -75 56 -148 124 -160 37 -7
101 8 130 30 32 24 11 28 -30 6 -21 -12 -52 -21 -69 -21 -44 0 -96 31 -117 71
-32 59 -27 65 55 72 123 9 188 58 152 114 -26 40 -76 51 -139 33z m104 -23
c16 -8 25 -21 25 -37 0 -37 -53 -62 -141 -68 -83 -5 -88 0 -55 54 33 55 115
79 171 51z"/>
<path d="M2066 500 c-58 -18 -106 -83 -106 -145 0 -75 56 -148 124 -160 37 -7
101 8 130 30 32 24 11 28 -30 6 -21 -12 -52 -21 -69 -21 -44 0 -96 31 -117 71
-32 59 -27 65 55 72 123 9 188 58 152 114 -26 40 -76 51 -139 33z m104 -23
c16 -8 25 -21 25 -37 0 -37 -53 -62 -141 -68 -83 -5 -88 0 -55 54 33 55 115
79 171 51z"/>
<path d="M4896 440 c-58 -18 -106 -83 -106 -145 0 -75 56 -148 124 -160 37 -7
101 8 130 30 32 24 11 28 -30 6 -21 -12 -52 -21 -69 -21 -44 0 -96 31 -117 71
-32 59 -27 65 55 72 123 9 188 58 152 114 -26 40 -76 51 -139 33z m104 -23
c16 -8 25 -21 25 -37 0 -37 -53 -62 -141 -68 -83 -5 -88 0 -55 54 33 55 115
79 171 51z"/>
<path d="M3656 400 c-58 -18 -106 -83 -106 -145 0 -75 56 -148 124 -160 37 -7
101 8 130 30 32 24 11 28 -30 6 -21 -12 -52 -21 -69 -21 -44 0 -96 31 -117 71
-32 59 -27 65 55 72 123 9 188 58 152 114 -26 40 -76 51 -139 33z m104 -23
c16 -8 25 -21 25 -37 0 -37 -53 -62 -141 -68 -83 -5 -88 0 -55 54 33 55 115
79 171 51z"/>
</g>
</svg>
